# xmcd
#
# Track frame offsets: 
#        150
#        24434
#        42275
#        54679
#        77149
#        95091
#        124909
#        144414
#        157516
#        179604
#        196707
#        222540
#
# Disc length: 3346 seconds
#
# Revision: 0
# Processed by: cddbd v1.5.2PL0 Copyright (c) Steve Scherf et al.
# Submitted via: ExactAudioCopy v0.99pb5
#
DISCID=a30d100c
DTITLE=Dennis Gruenling and Richard Sleigh - Vol. 1
DYEAR=2008
DGENRE=Blues
TTITLE0=Cuttin' Out
TTITLE1=Deep River Blues
TTITLE2=Trying To Get To You
TTITLE3=Tigerman
TTITLE4=Jambalaya
TTITLE5=Last Night
TTITLE6=On Fire
TTITLE7=It's You I'm Thinking Of
TTITLE8=Bad, Bad Whiskey
TTITLE9=Messin' With The Kid
TTITLE10=The Honeydripper
TTITLE11=People Get Ready
EXTD=
EXTT0=
EXTT1=
EXTT2=
EXTT3=
EXTT4=
EXTT5=
EXTT6=
EXTT7=
EXTT8=
EXTT9=
EXTT10=
EXTT11=
PLAYORDER=
